<?xml version="1.0" encoding="UTF-8" standalone="no"?>
<!-- Created with Inkscape (http://www.inkscape.org/) -->

<svg
   version="1.1"
   id="svg1"
   width="173.49324"
   height="107.69361"
   viewBox="0 0 173.49324 107.69361"
   xmlns="http://www.w3.org/2000/svg"
   xmlns:svg="http://www.w3.org/2000/svg">
  <defs
     id="defs1" />
  <g
     id="g1"
     transform="translate(0.01559191)">
    <path
       style="display:inline;fill:#000000"
       d="M 3.4206896,107.17674 C 2.0636086,106.5412 0.55491519,104.94132 0.23867355,103.80241 -0.11155621,102.5411 -0.09453065,4.8908616 0.25612309,3.7204838 0.61472883,2.5235645 1.7841887,1.2435985 3.1335094,0.57120359 L 4.2797657,0 H 86.731033 169.1823 l 1.14626,0.57120359 c 1.34932,0.67239491 2.51878,1.95236091 2.87738,3.14928021 0.35066,1.1703778 0.36768,98.8206162 0.0174,100.0819262 -0.28658,1.03212 -1.73516,2.65465 -2.9514,3.30584 l -0.89268,0.47795 -82.427587,0.0537 -82.4275851,0.0537 z M 158.30353,98.561398 c 1.44773,-0.435703 2.76318,-1.556572 3.37909,-2.879259 l 0.51996,-1.116625 0.002,-30.848466 c 0.002,-25.975489 -0.0467,-30.965512 -0.30744,-31.58942 -0.42954,-1.028054 -1.80365,-2.4941 -2.87535,-3.067748 l -0.89781,-0.480571 H 86.731033 15.337931 l -0.897813,0.480571 c -1.071704,0.573648 -2.445807,2.039694 -2.875356,3.067748 -0.260685,0.623908 -0.309249,5.613931 -0.307434,31.58942 l 0.0022,30.848466 0.519959,1.116625 c 0.599443,1.287322 1.921549,2.438735 3.292165,2.867125 1.426063,0.445721 141.751718,0.457608 143.231918,0.01213 z M 36.361257,76.150759 c -1.668476,-0.53337 -3.167369,-1.517071 -4.567698,-2.997713 -1.315901,-1.39137 -2.113628,-3.032546 -2.434183,-5.007875 -0.287711,-1.772948 -0.296464,-18.165346 -0.01064,-19.924483 0.472641,-2.908905 2.73565,-6.097264 5.163968,-7.275528 2.691372,-1.305902 -0.679019,-1.23115 52.674517,-1.168271 l 48.867949,0.05759 1.32414,0.501154 c 2.82004,1.067317 4.98853,3.182303 6.11036,5.959587 0.50305,1.245385 0.51127,1.404533 0.57614,11.163382 0.0427,6.425372 -0.017,10.298163 -0.16998,11.034483 -0.76137,3.663329 -3.38974,6.526701 -7.0204,7.648098 -1.39738,0.431608 -2.14579,0.437946 -50.333162,0.426254 -46.816238,-0.01136 -48.96901,-0.02923 -50.181013,-0.416681 z m 62.949087,-0.910314 c 0,-0.129478 -0.232648,-0.551547 -0.516996,-0.937931 -1.458746,-1.982211 -3.20361,-5.943754 -4.148938,-9.419757 -0.458069,-1.684336 -0.510673,-2.360311 -0.515215,-6.62069 -0.0045,-4.21801 0.05055,-4.963153 0.495747,-6.711198 0.703045,-2.760444 2.099236,-6.152216 3.475122,-8.442127 l 1.171726,-1.950123 -6.254623,-0.05853 c -3.440042,-0.03219 -9.135568,-0.03219 -12.656725,0 l -6.402102,0.05853 0.976988,1.544828 c 3.065462,4.847151 4.732858,11.151731 4.439785,16.787239 -0.262389,5.04549 -1.934079,10.286041 -4.621054,14.486459 -0.435041,0.680077 -0.731985,1.295502 -0.659878,1.36761 0.250832,0.250832 25.216163,0.14756 25.216163,-0.10431 z M 50.868965,74.359223 c 5.70959,-0.668737 10.161646,-3.722579 12.874449,-8.831097 1.502657,-2.829674 1.690031,-3.647498 1.690031,-7.376404 0,-2.655421 -0.08173,-3.550483 -0.413109,-4.524137 C 62.377101,45.86126 54.714189,40.898452 46.89131,41.886502 c -3.942628,0.497964 -7.240275,2.090551 -9.969615,4.814792 -3.765731,3.758694 -5.339281,8.211041 -4.746441,13.430015 0.80836,7.116273 6.728239,13.166079 13.838538,14.14226 2.597955,0.356676 2.548645,0.355806 4.855173,0.08565 z m -4.291028,-1.548835 c -3.634772,-0.641919 -6.237054,-1.966495 -8.657978,-4.406958 -1.369974,-1.381031 -1.882802,-2.10237 -2.682166,-3.772709 -1.256194,-2.624923 -1.576354,-3.978556 -1.558508,-6.589343 0.04395,-6.429474 4.09971,-11.807283 10.591245,-14.043651 1.509092,-0.519891 2.099003,-0.601865 4.391538,-0.610255 3.033397,-0.0111 4.226256,0.267761 7.152591,1.672101 2.525234,1.211853 5.275759,3.92144 6.485116,6.388594 1.339361,2.732367 1.57664,3.737029 1.583232,6.703555 0.0049,2.191654 -0.08254,2.914639 -0.506969,4.193104 -1.136972,3.424806 -3.554435,6.529018 -6.522263,8.375096 -2.749934,1.71054 -7.24693,2.625387 -10.275838,2.090466 z m 6.147665,-2.748552 c 5.618489,-1.774879 9.095144,-6.749401 8.786602,-12.572183 -0.185053,-3.492322 -1.417538,-6.057537 -4.106529,-8.547069 -4.413127,-4.085777 -11.559712,-4.364101 -16.484439,-0.641988 -2.231962,1.68692 -4.14682,4.647499 -4.701405,7.268886 -1.361059,6.433392 2.747485,12.948627 9.272256,14.703733 1.988152,0.534795 5.165362,0.44195 7.233515,-0.211379 z m -6.822154,-3.165472 c -1.549768,-0.49826 -2.094454,-0.788387 -3.280797,-1.747519 -2.160786,-1.746946 -3.259139,-4.521092 -3.05972,-7.728027 0.208739,-3.356793 2.048407,-6.000387 5.237068,-7.525641 1.589291,-0.760217 1.751799,-0.79173 4.082759,-0.79173 2.285595,0 2.512383,0.0415 3.877347,0.709475 2.861928,1.400552 4.571388,3.533428 5.193774,6.480217 1.013753,4.799784 -1.862789,9.44016 -6.643535,10.717208 -1.517377,0.405327 -3.951245,0.354019 -5.406896,-0.113983 z m 2.703005,-2.131952 c 0.497715,-0.123081 0.72107,-0.02727 1.24569,0.534333 l 0.639236,0.684305 0.957594,-0.337859 c 1.627097,-0.574073 1.947799,-0.874507 1.813952,-1.699309 -0.155982,-0.961205 0.488618,-1.587395 1.483721,-1.441345 0.591997,0.08689 0.756909,7.78e-4 1.111883,-0.580571 0.229236,-0.375424 0.529363,-1.021823 0.66695,-1.436443 0.231494,-0.69761 0.206816,-0.785428 -0.330764,-1.177028 -0.777603,-0.566444 -0.782098,-1.545129 -0.01038,-2.260331 0.623812,-0.57813 0.604979,-0.854212 -0.161963,-2.374304 -0.37665,-0.746524 -0.503076,-0.827586 -1.290734,-0.827586 -1.045489,0 -1.686397,-0.732434 -1.453364,-1.660914 0.127252,-0.507012 0.02924,-0.612585 -1.023947,-1.102901 -1.416115,-0.659279 -1.965681,-0.68411 -2.327248,-0.10515 -0.397145,0.63593 -1.868292,0.615022 -2.29834,-0.03267 -0.25923,-0.390421 -0.448898,-0.448704 -1.075194,-0.330393 -0.418242,0.07901 -1.083199,0.340524 -1.477682,0.581146 -0.580061,0.353818 -0.717241,0.579304 -0.717241,1.178947 0,0.941288 -0.523569,1.41919 -1.655172,1.510806 -0.851619,0.06895 -0.900645,0.116655 -1.389812,1.352426 l -0.507054,1.280958 0.672571,0.628275 c 0.843837,0.788262 0.846423,1.21515 0.01208,1.994543 -0.654357,0.611261 -0.657497,0.625479 -0.338059,1.530863 0.532287,1.508662 0.896907,1.88899 1.741236,1.816247 1.002602,-0.08638 1.532346,0.456785 1.416157,1.452031 -0.08079,0.692047 -0.01465,0.791256 0.807613,1.211343 1.56943,0.801808 1.947389,0.843982 2.440441,0.272309 0.242759,-0.281468 0.714283,-0.579248 1.047833,-0.661733 z m 78.089487,9.592559 c 4.92291,-0.626395 8.98755,-3.087013 11.70183,-7.083963 1.97657,-2.910636 2.83743,-5.645376 2.83651,-9.010941 -7.6e-4,-2.801842 -0.45266,-4.775165 -1.64262,-7.172898 -1.77563,-3.577829 -5.12874,-6.653232 -8.80397,-8.07482 -4.40407,-1.703505 -8.47536,-1.675578 -12.80061,0.08781 -6.94772,2.832559 -11.03742,9.732771 -10.11186,17.060906 0.46552,3.68574 1.78318,6.400041 4.49047,9.250115 2.52815,2.661484 5.82739,4.377504 9.34465,4.860393 2.60191,0.35722 2.80671,0.360646 4.9856,0.0834 z m -4.10801,-1.513827 c -5.87927,-0.932628 -10.53517,-4.777219 -12.33925,-10.189087 -1.25509,-3.765024 -0.97865,-7.193315 0.88957,-11.031772 1.70027,-3.493396 4.92289,-6.214842 9.02727,-7.623361 1.56116,-0.535753 2.08482,-0.60537 4.52413,-0.601449 2.36273,0.0038 3.00497,0.08584 4.47516,0.57166 5.53209,1.828072 9.49725,6.304769 10.47398,11.825208 1.2839,7.25649 -3.43312,14.547745 -10.71746,16.56634 -1.86412,0.516573 -4.73818,0.735511 -6.3334,0.482461 z m 6.55888,-2.946687 c 3.63639,-1.405591 6.34575,-4.089439 7.70231,-7.629795 0.66861,-1.744938 0.82063,-5.150525 0.31609,-7.081013 -1.46705,-5.613315 -6.56741,-9.495228 -12.47556,-9.495228 -3.61554,0 -6.49963,1.192605 -9.05047,3.742488 -1.91257,1.911851 -2.96376,3.722712 -3.42527,5.900649 -1.38022,6.513415 1.97565,12.399153 8.36423,14.669715 1.67758,0.596228 1.9665,0.632066 4.44255,0.551062 2.18496,-0.07148 2.90682,-0.186577 4.12612,-0.657878 z m -7.32612,-2.987614 c -1.55656,-0.516445 -2.10475,-0.809256 -3.25417,-1.73818 -3.64982,-2.949658 -4.27832,-8.723453 -1.36903,-12.576775 3.62993,-4.807813 11.27083,-4.787413 14.99518,0.04003 2.26604,2.93721 2.37137,7.689079 0.23912,10.788193 -0.92766,1.348301 -2.57073,2.630803 -4.15547,3.243558 -1.76366,0.681935 -4.78966,0.795917 -6.45563,0.24317 z m 2.8596,-2.246776 c 0.26159,0 0.74313,0.28958 1.07008,0.643512 l 0.59446,0.643512 0.9931,-0.339072 c 1.53842,-0.525257 1.87432,-0.837415 1.80217,-1.674793 -0.0833,-0.966386 0.56166,-1.5719 1.52379,-1.430689 0.59199,0.08689 0.75691,7.78e-4 1.11188,-0.580571 0.22923,-0.375424 0.52458,-1.007347 0.65633,-1.404274 0.22153,-0.667398 0.18708,-0.770695 -0.45791,-1.373209 -0.80584,-0.752768 -0.76293,-1.355506 0.15133,-2.125431 0.61089,-0.514448 0.58724,-0.812803 -0.18591,-2.345192 -0.373,-0.739287 -0.50761,-0.827586 -1.26162,-0.827586 -1.10599,0 -1.68605,-0.601106 -1.49617,-1.550469 0.12913,-0.645655 0.0781,-0.706626 -1.0195,-1.217627 -1.4068,-0.654972 -2.05784,-0.682689 -2.36922,-0.100869 -0.17511,0.3272 -0.46208,0.441379 -1.10934,0.441379 -0.63412,0 -0.94858,-0.120823 -1.14877,-0.441379 -0.36103,-0.578103 -0.91106,-0.554168 -2.31801,0.100869 -1.09757,0.511001 -1.14862,0.571972 -1.01949,1.217627 0.19095,0.954729 -0.38956,1.550469 -1.51081,1.550469 -0.82028,0 -0.88285,0.05185 -1.39813,1.158621 -0.67258,1.444652 -0.67206,1.575492 0.008,2.021085 0.78428,0.513882 0.7691,1.700997 -0.0292,2.282515 -0.53758,0.3916 -0.56226,0.479418 -0.33076,1.177028 0.13758,0.41462 0.43771,1.061019 0.66695,1.436443 0.35497,0.581349 0.51988,0.667457 1.11188,0.580571 0.96213,-0.141211 1.60704,0.464303 1.52378,1.430689 -0.0721,0.837149 0.26701,1.152678 1.79263,1.667849 0.98062,0.331138 0.98533,0.330231 1.5782,-0.30444 0.32705,-0.350113 0.80867,-0.636568 1.07026,-0.636568 z m 13.47143,-40.301112 c 1.39475,-0.655352 2.56197,-1.924683 3.10232,-3.373701 0.2534,-0.679542 1.0443,-2.774841 1.75755,-4.65622 3.00048,-7.9145482 5.53222,-14.8293857 5.65588,-15.44772903 0.12374,-0.61866263 0.0886,-0.66261532 -0.5301,-0.66261532 -0.36445,0 -0.76183,0.12413793 -0.88306,0.27586206 -0.12123,0.15172413 -0.88685,2.06344819 -1.70138,4.24827569 -0.81453,2.1848276 -2.15237,5.7599996 -2.97298,7.9448276 -0.8206,2.184827 -1.81987,4.898314 -2.2206,6.02997 -0.91901,2.595294 -1.41327,3.335308 -2.64238,3.956236 l -0.98291,0.496552 H 86.731033 36.728006 l -0.982912,-0.496552 c -1.22993,-0.621341 -1.724547,-1.362548 -2.640046,-3.956236 -0.399444,-1.131656 -1.398454,-3.845143 -2.220024,-6.02997 -0.82157,-2.184828 -2.160458,-5.76 -2.975307,-7.9448276 C 27.094867,2.5599999 26.324817,0.6432549 26.198494,0.48539407 26.07217,0.32753323 25.712038,0.22822289 25.3982,0.26470442 c -0.461934,0.0536967 -0.563579,0.17550944 -0.533675,0.6395644 0.03415,0.52997028 1.780321,5.34725568 5.951875,16.41986818 0.914582,2.427587 1.866172,4.711724 2.114645,5.075862 0.668736,0.980034 1.647441,1.69825 2.910831,2.136094 1.062479,0.368215 3.850481,0.386747 51.220192,0.340452 l 50.096552,-0.04896 z M 87.686357,20.223111 c 1.721361,-0.719231 2.392362,-2.552519 1.481197,-4.04688 -1.498171,-2.457082 -5.301724,-1.369231 -5.304661,1.517181 -9.69e-4,0.95178 0.824118,2.067318 1.864096,2.520304 0.860361,0.37475 1.082402,0.375815 1.959368,0.0094 z M 19.68668,16.429401 c 1.270847,-0.433021 2.656536,-1.61045 3.411586,-2.898844 0.831117,-1.418194 0.984123,-3.8319046 0.328521,-5.1824957 -1.567786,-3.2297616 -4.85092,-4.6594652 -8.07862,-3.5179896 -4.32386,1.5291324 -5.6174848,6.8954623 -2.417289,10.0276133 0.883284,0.864502 1.758738,1.411059 2.736659,1.708529 0.951685,0.28949 2.969609,0.220799 4.019143,-0.136813 z m -4.81484,-4.33215 -0.829082,-1.364817 0.853294,-1.6144929 0.853294,-1.6144931 h 1.715471 1.715472 l 0.914593,1.5394889 0.914594,1.5394891 -0.805194,1.439821 -0.805194,1.439822 h -1.849083 -1.849082 z m 143.91436,4.066467 c 2.22888,-1.164304 3.51664,-3.205229 3.51489,-5.570615 -0.003,-3.6279343 -3.27236,-6.4866693 -6.97633,-6.0995279 -5.52911,0.577907 -7.69379,7.0849549 -3.56573,10.7186229 0.54504,0.479757 1.40567,1.025165 1.91252,1.212019 1.30251,0.480173 3.95542,0.345056 5.11465,-0.260499 z m -5.52842,-4.141471 -0.80519,-1.439821 0.91459,-1.5394891 0.9146,-1.5394889 h 1.71547 1.71547 l 0.85329,1.6144931 0.8533,1.6144929 -0.82908,1.364817 -0.82909,1.364818 h -1.84908 -1.84908 z M 64.132177,12.37949 c 1.182721,-0.537127 1.897561,-1.565139 2.027311,-2.9154755 0.126786,-1.3194814 -0.216231,-2.2001644 -1.189921,-3.0550753 -1.533408,-1.3463498 -3.40424,-1.3793425 -4.939962,-0.087118 -0.941067,0.7918557 -1.326158,1.6349892 -1.326158,2.9035479 0,1.3858509 0.659384,2.4111369 1.979578,3.0780789 1.189409,0.600871 2.242394,0.624085 3.449152,0.07604 z m 48.646863,-0.07604 c 1.3375,-0.675682 1.9798,-1.689185 1.97875,-3.1222915 -9.5e-4,-1.3026335 -0.48013,-2.2328682 -1.58038,-3.0680432 -1.55049,-1.1769359 -3.66951,-0.9086672 -5.02601,0.6362936 -0.79624,0.9068671 -0.98787,1.5536822 -0.84249,2.8435692 0.13999,1.2419629 0.88655,2.2713189 2.02098,2.7865139 1.20676,0.548043 2.25974,0.524829 3.44915,-0.07604 z M 46.995895,9.0279415 c 0.451829,-0.2539424 1.093363,-0.874632 1.42563,-1.3793103 0.512474,-0.7783925 0.590415,-1.0947543 0.513762,-2.0853698 -0.157083,-2.0300628 -1.588863,-3.3563649 -3.623288,-3.3563649 -1.584278,0 -2.573465,0.4493345 -3.241152,1.472282 -1.046194,1.6028475 -0.914037,3.2857844 0.367272,4.6769814 1.086853,1.1800653 3.12017,1.4797609 4.557776,0.6717816 z m 82.831885,0.1591211 c 1.44496,-0.6156909 2.51476,-2.4496941 2.25801,-3.8710144 -0.2063,-1.1420171 -1.12809,-2.4325306 -1.99678,-2.7954904 -2.47834,-1.0355174 -5.22973,0.3154169 -5.55313,2.7265978 -0.15924,1.1871702 0.0235,1.8469618 0.7512,2.711739 1.23726,1.4703998 2.91022,1.9229032 4.5407,1.228168 z M 102.53823,8.4052184 c 0.51485,-0.3139414 0.83548,-0.8038196 1.26333,-1.9302095 1.55956,-4.1058002 2.13883,-5.8399401 2.01676,-6.03745538 -0.19059,-0.30838774 -1.11587,-0.26877295 -1.37801,0.0589982 -0.12134,0.15172413 -0.6878,1.51724128 -1.2588,3.03448268 -0.57099,1.5172413 -1.18133,2.9820689 -1.35631,3.2551723 l -0.31814,0.4965517 H 86.642623 C 75.013562,7.2827584 71.7311,7.2227145 71.561871,7.0068963 71.4429,6.8551722 70.872398,5.489655 70.294088,3.9724137 69.715779,2.4551723 69.103497,0.9903448 68.933462,0.71724136 68.625148,0.22204008 67.675229,0.02952534 67.437563,0.41407602 c -0.11335,0.18340491 2.005853,6.18143318 2.569406,7.27224788 0.592151,1.1461667 0.251933,1.1229936 16.613719,1.1316012 14.597622,0.00768 15.256132,-0.00939 15.917542,-0.4127067 z"
       id="path1" />
  </g>
</svg>
