<?xml version="1.0" encoding="UTF-8" standalone="no"?>
<!-- Created with Inkscape (http://www.inkscape.org/) -->

<svg
   version="1.1"
   id="svg1"
   width="173.49324"
   height="107.6936"
   viewBox="0 0 173.49324 107.6936"
   xmlns="http://www.w3.org/2000/svg"
   xmlns:svg="http://www.w3.org/2000/svg">
  <defs
     id="defs1" />
  <g
     id="g1"
     transform="translate(0.01559191)">
    <path
       style="display:inline;fill:#000000"
       d="M 3.4206896,107.17674 C 2.0636086,106.5412 0.55491519,104.94132 0.23867355,103.80241 -0.11155621,102.5411 -0.09453065,4.8908616 0.25612309,3.7204838 0.61472883,2.5235645 1.7841887,1.2435985 3.1335094,0.57120359 L 4.2797657,0 H 86.731033 169.1823 l 1.14626,0.57120359 c 1.34932,0.67239491 2.51878,1.95236091 2.87738,3.14928021 0.35066,1.1703778 0.36768,98.8206162 0.0174,100.0819262 -0.28658,1.03212 -1.73516,2.65465 -2.9514,3.30584 l -0.89268,0.47795 -82.427587,0.0537 -82.4275851,0.0537 z M 158.30353,98.561398 c 1.44773,-0.435703 2.76318,-1.556572 3.37909,-2.879259 l 0.51996,-1.116625 0.002,-30.848466 c 0.002,-25.975489 -0.0467,-30.965512 -0.30744,-31.58942 -0.42954,-1.028054 -1.80365,-2.4941 -2.87535,-3.067748 l -0.89781,-0.480571 H 86.731033 15.337931 l -0.897813,0.480571 c -1.071704,0.573648 -2.445807,2.039694 -2.875356,3.067748 -0.260685,0.623908 -0.309249,5.613931 -0.307434,31.58942 l 0.0022,30.848466 0.519959,1.116625 c 0.599443,1.287322 1.921549,2.438735 3.292165,2.867125 1.426063,0.445721 141.751718,0.457608 143.231918,0.01213 z M 138.15172,24.360955 c 1.39475,-0.655352 2.56197,-1.924683 3.10232,-3.373701 0.2534,-0.679542 1.0443,-2.774841 1.75755,-4.65622 3.00048,-7.9145482 5.53222,-14.8293857 5.65588,-15.44772903 0.12374,-0.61866263 0.0886,-0.66261532 -0.5301,-0.66261532 -0.36445,0 -0.76183,0.12413793 -0.88306,0.27586206 -0.12123,0.15172413 -0.88685,2.06344819 -1.70138,4.24827569 -0.81453,2.1848276 -2.15237,5.7599996 -2.97298,7.9448276 -0.8206,2.184827 -1.81987,4.898314 -2.2206,6.02997 -0.91901,2.595294 -1.41327,3.335308 -2.64238,3.956236 l -0.98291,0.496552 H 86.731033 36.728006 l -0.982912,-0.496552 c -1.22993,-0.621341 -1.724547,-1.362548 -2.640046,-3.956236 -0.399444,-1.131656 -1.398454,-3.845143 -2.220024,-6.02997 -0.82157,-2.184828 -2.160458,-5.76 -2.975307,-7.9448276 C 27.094867,2.5599999 26.324817,0.6432549 26.198494,0.48539407 26.07217,0.32753323 25.712038,0.22822289 25.3982,0.26470442 c -0.461934,0.0536967 -0.563579,0.17550944 -0.533675,0.6395644 0.03415,0.52997028 1.780321,5.34725568 5.951875,16.41986818 0.914582,2.427587 1.866172,4.711724 2.114645,5.075862 0.668736,0.980034 1.647441,1.69825 2.910831,2.136094 1.062479,0.368215 3.850481,0.386747 51.220192,0.340452 l 50.096552,-0.04896 z M 87.686357,20.223111 c 1.721361,-0.719231 2.392362,-2.552519 1.481197,-4.04688 -1.498171,-2.457082 -5.301724,-1.369231 -5.304661,1.517181 -9.69e-4,0.95178 0.824118,2.067318 1.864096,2.520304 0.860361,0.37475 1.082402,0.375815 1.959368,0.0094 z M 19.68668,16.429401 c 1.270847,-0.433021 2.656536,-1.61045 3.411586,-2.898844 0.831117,-1.418194 0.984123,-3.8319046 0.328521,-5.1824957 -1.567786,-3.2297616 -4.85092,-4.6594652 -8.07862,-3.5179896 -4.32386,1.5291324 -5.6174848,6.8954623 -2.417289,10.0276133 0.883284,0.864502 1.758738,1.411059 2.736659,1.708529 0.951685,0.28949 2.969609,0.220799 4.019143,-0.136813 z m -4.81484,-4.33215 -0.829082,-1.364817 0.853294,-1.6144929 0.853294,-1.6144931 h 1.715471 1.715472 l 0.914593,1.5394889 0.914594,1.5394891 -0.805194,1.439821 -0.805194,1.439822 h -1.849083 -1.849082 z m 143.91436,4.066467 c 2.22888,-1.164304 3.51664,-3.205229 3.51489,-5.570615 -0.003,-3.6279343 -3.27236,-6.4866693 -6.97633,-6.0995279 -5.52911,0.577907 -7.69379,7.0849549 -3.56573,10.7186229 0.54504,0.479757 1.40567,1.025165 1.91252,1.212019 1.30251,0.480173 3.95542,0.345056 5.11465,-0.260499 z m -5.52842,-4.141471 -0.80519,-1.439821 0.91459,-1.5394891 0.9146,-1.5394889 h 1.71547 1.71547 l 0.85329,1.6144931 0.8533,1.6144929 -0.82908,1.364817 -0.82909,1.364818 h -1.84908 -1.84908 z M 64.132177,12.37949 c 1.182721,-0.537127 1.897561,-1.565139 2.027311,-2.9154755 0.126786,-1.3194814 -0.216231,-2.2001644 -1.189921,-3.0550753 -1.533408,-1.3463498 -3.40424,-1.3793425 -4.939962,-0.087118 -0.941067,0.7918557 -1.326158,1.6349892 -1.326158,2.9035479 0,1.3858509 0.659384,2.4111369 1.979578,3.0780789 1.189409,0.600871 2.242394,0.624085 3.449152,0.07604 z m 48.646863,-0.07604 c 1.3375,-0.675682 1.9798,-1.689185 1.97875,-3.1222915 -9.5e-4,-1.3026335 -0.48013,-2.2328682 -1.58038,-3.0680432 -1.55049,-1.1769359 -3.66951,-0.9086672 -5.02601,0.6362936 -0.79624,0.9068671 -0.98787,1.5536822 -0.84249,2.8435692 0.13999,1.2419629 0.88655,2.2713189 2.02098,2.7865139 1.20676,0.548043 2.25974,0.524829 3.44915,-0.07604 z M 46.995895,9.0279415 c 0.451829,-0.2539424 1.093363,-0.874632 1.42563,-1.3793103 0.512474,-0.7783925 0.590415,-1.0947543 0.513762,-2.0853698 -0.157083,-2.0300628 -1.588863,-3.3563649 -3.623288,-3.3563649 -1.584278,0 -2.573465,0.4493345 -3.241152,1.472282 -1.046194,1.6028475 -0.914037,3.2857844 0.367272,4.6769814 1.086853,1.1800653 3.12017,1.4797609 4.557776,0.6717816 z m 82.831885,0.1591211 c 1.44496,-0.6156909 2.51476,-2.4496941 2.25801,-3.8710144 -0.2063,-1.1420171 -1.12809,-2.4325306 -1.99678,-2.7954904 -2.47834,-1.0355174 -5.22973,0.3154169 -5.55313,2.7265978 -0.15924,1.1871702 0.0235,1.8469618 0.7512,2.711739 1.23726,1.4703998 2.91022,1.9229032 4.5407,1.228168 z M 102.53823,8.4052184 c 0.51485,-0.3139414 0.83548,-0.8038196 1.26333,-1.9302095 1.55956,-4.1058002 2.13883,-5.8399401 2.01676,-6.03745538 -0.19059,-0.30838774 -1.11587,-0.26877295 -1.37801,0.0589982 -0.12134,0.15172413 -0.6878,1.51724128 -1.2588,3.03448268 -0.57099,1.5172413 -1.18133,2.9820689 -1.35631,3.2551723 l -0.31814,0.4965517 H 86.642623 C 75.013562,7.2827584 71.7311,7.2227145 71.561871,7.0068963 71.4429,6.8551722 70.872398,5.489655 70.294088,3.9724137 69.715779,2.4551723 69.103497,0.9903448 68.933462,0.71724136 68.625148,0.22204008 67.675229,0.02952534 67.437563,0.41407602 c -0.11335,0.18340491 2.005853,6.18143318 2.569406,7.27224788 0.592151,1.1461667 0.251933,1.1229936 16.613719,1.1316012 14.597622,0.00768 15.256132,-0.00939 15.917542,-0.4127067 z"
       id="path1" />
  </g>
</svg>
